<svg width="16" height="16" fill="none" xmlns="http://www.w3.org/2000/svg"><path d="M14.73 10.16a7.5 7.5 0 0 0-1.91-1.2.62.62 0 1 0-.5 1.14c.61.28 1.15.61 1.59 1 .53.47.84 1.15.84 1.87v1.15c0 .35-.28.63-.63.63H1.88a.63.63 0 0 1-.63-.63v-1.15c0-.72.3-1.4.84-1.87.64-.56 2.48-1.85 5.91-1.85a4.63 4.63 0 1 0-2.82-.96 8.69 8.69 0 0 0-3.91 1.87c-.8.7-1.27 1.73-1.27 2.8v1.16C0 15.16.84 16 1.88 16h12.25c1.03 0 1.87-.84 1.87-1.88v-1.15c0-1.08-.46-2.1-1.27-2.81ZM4.63 4.62a3.38 3.38 0 1 1 6.75.01 3.38 3.38 0 0 1-6.76 0Z" fill="#fff"/></svg>