<svg width="117" height="36" fill="none" xmlns="http://www.w3.org/2000/svg"><path d="M50.46 10.77h2.78V24h-2.78v-5.44h-5.67V24H42V10.77h2.78v5.4h5.67v-5.4ZM60.75 24.18c-1.01 0-1.91-.19-2.7-.57a4.37 4.37 0 0 1-1.85-1.7 5.02 5.02 0 0 1-.67-2.63c0-1.5.48-2.7 1.45-3.57a5.4 5.4 0 0 1 3.77-1.3c1.56 0 2.82.43 3.78 1.3a4.57 4.57 0 0 1 1.45 3.57c0 1.52-.48 2.71-1.45 3.6a5.42 5.42 0 0 1-3.78 1.3Zm-.03-2.1c.78 0 1.4-.25 1.89-.76.48-.52.72-1.2.72-2.04 0-.84-.24-1.51-.72-2.03a2.45 2.45 0 0 0-1.89-.77c-.75 0-1.36.26-1.83.78-.47.51-.7 1.19-.7 2.02 0 .84.23 1.52.7 2.04a2.4 2.4 0 0 0 1.83.77ZM74.3 14.59h2.66V24h-2.53l-.07-1.14a3.66 3.66 0 0 1-3.03 1.32c-1.14 0-2.02-.28-2.63-.84-.61-.57-.92-1.37-.92-2.42V14.6h2.68v5.77c0 .58.16 1.01.47 1.29.32.27.74.4 1.25.4.61 0 1.12-.17 1.5-.52.4-.36.6-.94.61-1.75v-5.2ZM86.69 14.59l-4.2 7.38h4.07V24h-7.85l4.17-7.38h-3.85V14.6h7.66ZM89.89 13.18a1.52 1.52 0 0 1-1.55-1.52c0-.42.15-.77.46-1.06.3-.3.67-.45 1.09-.45.41 0 .77.15 1.08.45.3.29.45.64.45 1.06 0 .42-.15.78-.45 1.08-.3.3-.67.44-1.08.44ZM88.53 24v-9.41h2.69V24h-2.7ZM99.6 14.4c1.15 0 2.03.29 2.64.86.62.56.92 1.36.92 2.4V24h-2.68v-5.77c0-.59-.16-1.02-.48-1.3a1.8 1.8 0 0 0-1.23-.41c-.29 0-.55.04-.8.12-.23.08-.46.2-.66.37-.2.17-.37.4-.48.7-.11.31-.17.68-.18 1.1V24h-2.67v-9.41h2.67v1.04a3.7 3.7 0 0 1 2.96-1.22ZM112.32 14.59h2.55v8.7c0 .9-.13 1.68-.37 2.35-.23.66-.58 1.2-1.03 1.6-.45.41-.98.71-1.58.9-.6.2-1.3.3-2.08.3-2.52 0-4.15-.97-4.92-2.92l2.22-.93a3.2 3.2 0 0 0 1.03 1.36c.42.3.94.44 1.57.44 1.65 0 2.48-.97 2.48-2.9v-1.1c-.29.38-.7.7-1.21.93a4.35 4.35 0 0 1-4.75-.92c-.4-.4-.71-.89-.95-1.48a5.19 5.19 0 0 1-.34-1.9c0-.69.12-1.32.34-1.9a4.24 4.24 0 0 1 5.8-2.32c.52.26.91.6 1.18 1.03l.06-1.24Zm-4.1 6.22c.48.49 1.06.73 1.76.73.69 0 1.27-.25 1.75-.74.48-.48.71-1.08.71-1.78s-.23-1.3-.71-1.8a2.33 2.33 0 0 0-1.75-.73c-.7 0-1.3.24-1.76.73-.47.47-.7 1.07-.7 1.8 0 .71.23 1.31.7 1.8ZM7.32 17.7v-7.28l7.87-4.46 7.88 4.46V21.7H1.63c-.26-.6-.54-1.19-.76-1.8A14.69 14.69 0 0 1 4.45 4.37 15.3 15.3 0 0 1 15.2 0c3.9 0 7.79 1.46 10.75 4.37a14.74 14.74 0 0 1 0 21.09L15.19 36 4.45 25.46c-.45-.45-.88-.93-1.28-1.43h3.19l8.83 8.68 9.07-8.9a12.43 12.43 0 0 0 0-17.8 12.9 12.9 0 0 0-9.07-3.68c-3.27 0-6.56 1.23-9.06 3.68A12.43 12.43 0 0 0 3.2 19.36h17.5v-7.6l-5.5-3.12-5.5 3.12v5.95H7.32Z" fill="#fff"/></svg>